<?xml version="1.0" standalone="no"?> <!DOCTYPE svg PUBLIC "-//W3C//DTD SVG 20010904//EN" "http://www.w3.org/TR/2001/REC-SVG-20010904/DTD/svg10.dtd"> <svg version="1.0" xmlns="http://www.w3.org/2000/svg" width="1800.000000pt" height="1428.000000pt" viewBox="0 0 1800.000000 1428.000000" preserveAspectRatio="xMidYMid meet"> <g transform="translate(0.000000,1428.000000) scale(0.100000,-0.100000)" fill="#1e766e" stroke="none"> <path d="M10305 12730 c-22 -5 -71 -13 -110 -20 -188 -30 -446 -130 -635 -245 -50 -30 -93 -55 -97 -55 -8 0 -95 -71 -115 -95 -39 -45 0 -140 74 -180 33 -17 41 -18 73 -6 20 7 64 32 98 55 34 23 73 47 87 54 14 7 50 27 80 45 104 61 337 140 502 171 117 22 429 22 542 1 135 -26 220 -47 248 -61 15 -8 34 -14 43 -14 24 0 246 -112 318 -161 84 -57 183 -137 245 -198 73 -72 118 -78 182 -25 68 58 78 123 28 180 -86 98 -307 274 -419 334 -79 42 -133 69 -184 90 -27 12 -59 25 -70 30 -18 9 -82 29 -195 60 -19 6 -62 14 -95 20 -33 5 -87 14 -120 20 -68 11 -420 11 -480 0z"/> <path d="M10340 12088 c-107 -17 -233 -48 -244 -59 -6 -5 -16 -9 -24 -9 -32 0 -217 -88 -292 -139 -89 -60 -98 -69 -105 -102 -13 -59 13 -110 77 -151 39 -26 55 -23 133 23 224 133 413 189 635 189 104 0 281 -24 328 -45 18 -8 40 -15 50 -15 46 -1 259 -125 346 -201 85 -75 145 -71 206 13 49 68 36 112 -57 196 -185 165 -452 277 -723 301 -142 13 -250 12 -330 -1z"/> <path d="M10359 11406 c-3 -3 -40 -10 -82 -16 -242 -30 -528 -180 -717 -377 -103 -106 -150 -171 -218 -303 -72 -138 -110 -268 -134 -467 -12 -92 -7 -166 21 -333 8 -54 61 -221 80 -257 5 -10 24 -47 41 -83 18 -36 76 -136 129 -224 106 -175 105 -174 176 -278 28 -40 52 -77 54 -82 4 -9 190 -284 203 -301 5 -5 43 -62 85 -125 42 -63 97 -145 122 -182 25 -36 86 -126 135 -200 49 -73 105 -157 124 -185 24 -36 42 -53 56 -53 21 1 67 55 100 118 9 18 54 87 99 153 45 66 89 131 97 144 8 13 33 52 55 87 21 35 66 102 100 150 33 48 87 129 119 180 63 99 122 192 191 298 159 246 202 315 261 423 51 93 114 226 114 241 0 7 7 31 16 52 9 22 29 91 45 154 26 103 29 131 29 278 0 132 -4 182 -21 251 -20 86 -42 158 -58 196 -5 11 -17 40 -27 65 -42 105 -159 267 -264 368 -144 137 -403 266 -594 293 -80 12 -329 23 -337 15z m307 -673 c112 -47 235 -153 287 -248 51 -96 71 -170 75 -278 4 -119 -7 -171 -62 -287 -36 -76 -176 -223 -241 -253 -121 -56 -148 -65 -239 -73 -206 -19 -415 83 -534 260 -18 26 -32 50 -32 54 0 4 -6 19 -14 34 -21 40 -46 160 -46 220 0 55 28 187 51 248 8 19 37 67 66 107 127 175 294 257 508 249 93 -3 121 -8 181 -33z"/> <path d="M5975 10060 c-193 -19 -276 -30 -370 -50 -55 -11 -125 -25 -155 -30 -48 -8 -123 -28 -367 -95 -28 -8 -85 -26 -125 -41 -40 -14 -109 -39 -153 -54 -73 -26 -258 -100 -329 -132 -192 -86 -616 -316 -711 -387 -27 -20 -75 -52 -105 -71 -172 -107 -486 -381 -650 -565 -236 -267 -402 -550 -475 -810 -56 -199 -57 -469 -3 -645 64 -208 144 -339 286 -470 67 -62 196 -150 219 -150 5 0 14 -5 21 -12 13 -13 57 -30 147 -57 154 -47 191 -52 383 -51 103 0 193 1 200 0 20 0 14 -24 -27 -112 -21 -46 -49 -108 -61 -138 -13 -30 -33 -77 -45 -105 -13 -27 -33 -75 -46 -105 -13 -30 -33 -73 -45 -95 -23 -45 -17 -44 -186 -30 -270 23 -611 -110 -824 -322 -40 -39 -80 -84 -90 -100 -10 -15 -30 -44 -46 -64 -39 -51 -137 -246 -144 -288 -4 -20 -10 -43 -15 -52 -22 -42 -40 -182 -42 -313 -3 -193 15 -278 91 -451 47 -108 93 -175 181 -268 154 -162 351 -260 585 -293 56 -8 106 -16 113 -19 9 -3 13 -200 15 -857 3 -697 6 -859 17 -888 8 -19 23 -57 34 -85 37 -94 120 -198 202 -255 95 -66 173 -97 299 -119 42 -8 1733 -11 5660 -11 5955 0 5644 -2 5781 44 151 52 290 171 357 306 61 124 68 158 77 349 9 210 5 2432 -4 2470 -17 66 -71 77 -213 42 -165 -41 -172 -39 -138 59 13 36 28 76 33 90 6 14 19 52 28 85 25 93 52 145 74 145 19 0 95 21 161 45 19 6 67 22 105 35 82 26 282 121 342 162 23 15 44 28 47 28 16 0 153 104 249 188 228 200 371 432 444 717 25 100 28 125 27 275 -1 148 -4 174 -28 253 -27 92 -74 193 -123 265 -92 135 -277 269 -397 286 -62 10 -73 14 -80 33 -5 13 19 87 45 135 5 10 13 34 18 55 5 21 27 90 49 153 22 63 47 142 56 175 26 94 47 167 58 203 11 38 26 121 35 200 11 101 -28 223 -93 288 -97 97 -351 139 -687 115 -260 -19 -423 -54 -550 -117 -36 -18 -80 -18 -115 0 -46 23 -175 36 -355 36 -273 0 -442 -26 -553 -85 l-46 -24 -69 44 c-101 67 -227 99 -384 99 -85 1 -142 -5 -195 -18 -41 -10 -100 -25 -129 -32 -30 -8 -59 -18 -65 -24 -5 -5 -17 -10 -25 -10 -32 0 -169 -75 -386 -210 -23 -14 -29 -12 -92 21 -158 84 -356 105 -648 69 -49 -6 -103 -15 -120 -20 -116 -36 -222 -75 -236 -86 -22 -19 -46 -17 -95 6 -96 47 -182 64 -324 65 -136 0 -179 -8 -259 -49 -43 -23 -91 -72 -91 -94 0 -18 10 -19 178 -25 162 -5 185 -8 265 -36 49 -16 96 -36 105 -43 9 -8 29 -20 44 -28 15 -7 48 -35 74 -62 l46 -48 63 58 c121 111 242 150 490 158 285 10 399 -23 513 -148 38 -42 53 -46 73 -21 15 17 205 163 213 163 3 0 24 13 48 29 49 33 174 92 233 111 22 7 51 17 65 22 14 5 63 16 110 24 248 40 402 -11 536 -182 l31 -39 64 60 c90 84 167 119 304 139 137 20 234 20 400 1 137 -16 187 -31 246 -77 20 -15 45 -28 54 -28 10 0 38 18 62 41 101 93 265 138 538 146 335 10 487 -18 528 -97 27 -53 12 -180 -44 -370 -29 -101 -103 -329 -115 -358 -8 -18 -14 -39 -14 -47 0 -8 -6 -29 -14 -47 -8 -18 -21 -49 -30 -70 -9 -20 -16 -42 -16 -50 0 -7 -20 -65 -44 -128 -78 -207 -73 -236 35 -199 102 36 262 15 359 -46 142 -90 247 -269 265 -450 9 -88 -10 -279 -36 -365 -41 -138 -161 -335 -286 -471 -102 -110 -291 -247 -438 -318 -218 -104 -340 -146 -510 -172 -38 -6 -76 -17 -84 -24 -13 -12 -42 -103 -63 -195 -6 -25 -14 -49 -18 -55 -4 -5 -11 -26 -15 -45 -18 -93 -120 -325 -208 -478 -27 -46 -46 -90 -43 -98 10 -26 49 -33 132 -23 43 5 120 14 169 19 50 5 108 14 130 19 27 7 43 6 52 -1 11 -9 13 -226 11 -1177 -3 -1144 -4 -1167 -23 -1211 -37 -81 -53 -106 -100 -149 -53 -49 -146 -96 -219 -111 -35 -7 -1781 -9 -5636 -8 -4962 3 -5589 5 -5625 18 -153 58 -234 142 -269 277 -14 53 -16 173 -16 971 0 657 -3 913 -11 918 -6 3 -89 6 -184 5 -168 -2 -235 6 -310 39 -11 5 -42 18 -69 29 -183 78 -346 256 -421 461 -27 71 -28 84 -29 260 -1 182 -1 187 31 285 37 114 50 142 115 240 82 124 217 246 338 306 33 16 102 43 153 60 87 29 101 31 252 32 138 0 170 -3 230 -22 39 -12 78 -24 87 -27 13 -4 23 8 42 49 15 30 26 57 26 61 0 4 11 31 24 59 13 29 39 88 56 132 18 44 43 103 57 130 13 28 56 124 95 215 39 91 85 197 103 235 87 186 92 221 43 258 l-28 21 -67 -21 c-305 -95 -605 -85 -833 26 -166 81 -249 157 -341 311 -78 130 -113 269 -112 440 1 112 8 153 57 328 13 46 63 160 113 257 23 43 127 198 192 285 60 80 265 291 370 380 143 122 351 273 561 405 119 74 308 174 530 277 136 64 159 74 214 92 27 10 54 20 60 24 21 13 236 86 356 122 41 12 89 26 105 31 43 12 276 65 370 83 269 52 581 73 822 56 87 -6 166 -13 175 -16 9 -3 52 -11 95 -19 164 -28 318 -77 446 -141 48 -24 92 -44 96 -44 5 0 58 -33 117 -72 195 -130 390 -346 487 -538 21 -41 42 -82 47 -90 22 -36 58 -137 95 -265 40 -136 57 -278 62 -515 5 -216 4 -221 -37 -486 -6 -34 -10 -69 -10 -78 0 -31 30 -29 83 6 64 43 165 108 192 123 133 75 312 152 420 181 28 7 82 22 120 32 132 35 263 47 375 33 56 -7 120 -19 143 -27 50 -18 87 -13 130 19 29 22 100 58 197 100 19 9 62 23 95 32 187 51 199 60 147 107 -31 27 -36 28 -137 28 -62 0 -122 -6 -147 -14 -24 -8 -70 -21 -103 -31 -33 -9 -75 -23 -93 -31 -41 -18 -57 -18 -129 1 -39 10 -107 15 -211 15 -159 0 -199 -6 -387 -57 -49 -14 -106 -29 -126 -33 -19 -5 -49 -16 -65 -25 -16 -8 -36 -15 -44 -15 -9 0 -20 -4 -25 -8 -21 -18 -132 -60 -143 -53 -7 4 -12 70 -15 176 -3 94 -9 211 -15 260 -13 112 -41 275 -52 295 -4 8 -10 31 -14 50 -5 31 -48 152 -75 215 -17 39 -82 170 -93 190 -76 124 -164 251 -208 296 -8 9 -36 38 -61 65 -25 27 -72 72 -105 99 -32 28 -61 52 -64 55 -32 34 -259 175 -340 212 -19 9 -46 21 -60 27 -43 19 -193 72 -230 81 -19 5 -62 16 -95 25 -158 41 -315 57 -585 60 -146 2 -301 -1 -345 -5z"/> <path d="M6125 9660 c-33 -4 -98 -9 -145 -10 -47 0 -107 -5 -135 -11 -27 -5 -90 -15 -140 -23 -49 -8 -117 -22 -150 -31 -33 -9 -78 -20 -100 -24 -22 -4 -56 -13 -75 -19 -19 -7 -75 -24 -125 -38 -49 -14 -103 -29 -120 -34 -50 -14 -177 -61 -222 -81 -23 -10 -45 -19 -48 -19 -3 0 -30 -11 -58 -24 -29 -13 -77 -33 -107 -45 -164 -66 -475 -236 -695 -379 -508 -330 -876 -750 -993 -1132 -41 -135 -51 -292 -25 -405 43 -185 209 -348 418 -412 75 -23 343 -26 415 -5 163 48 240 131 178 190 -13 11 -35 23 -49 27 -35 9 -95 59 -123 104 -142 228 26 636 424 1030 69 68 157 149 195 179 39 31 72 58 75 61 22 25 257 191 366 258 75 47 330 179 419 218 116 50 158 66 220 85 39 12 108 35 155 50 125 41 415 90 535 90 95 0 292 -28 359 -51 92 -31 211 -99 263 -149 120 -114 163 -194 217 -405 33 -131 30 -460 -8 -655 -8 -41 -19 -104 -26 -140 -6 -36 -17 -85 -25 -110 -8 -25 -28 -92 -46 -150 -17 -58 -35 -116 -41 -130 -5 -13 -19 -51 -30 -85 -11 -33 -24 -65 -29 -70 -4 -6 -15 -33 -25 -60 -18 -54 -59 -143 -137 -300 -59 -117 -83 -161 -167 -305 -5 -8 -19 -33 -30 -55 -35 -64 -134 -207 -259 -375 -513 -687 -1124 -1139 -1623 -1200 -97 -12 -162 -8 -173 11 -4 5 8 40 26 77 106 222 241 499 250 512 5 8 14 26 20 40 15 35 269 552 280 570 5 8 13 25 18 36 10 23 388 789 535 1084 107 214 209 409 306 585 27 47 53 99 72 137 8 18 75 145 149 283 21 39 57 108 82 155 24 47 70 135 102 195 53 102 57 114 51 159 -9 75 -57 120 -175 161 -92 32 -294 4 -495 -68 -106 -39 -62 34 -432 -709 -122 -243 -246 -495 -277 -558 -30 -63 -94 -196 -142 -295 -48 -99 -103 -214 -122 -255 -20 -41 -62 -131 -95 -200 -63 -133 -80 -168 -126 -270 -16 -36 -44 -96 -62 -135 -18 -38 -48 -104 -67 -145 -20 -41 -59 -126 -89 -189 -30 -62 -54 -118 -54 -125 0 -7 -4 -16 -9 -21 -5 -6 -25 -48 -46 -95 -20 -47 -43 -98 -50 -115 -8 -16 -27 -59 -43 -95 -16 -36 -41 -90 -55 -120 -13 -30 -35 -77 -47 -105 -87 -199 -120 -265 -134 -271 -8 -3 -48 12 -88 34 -126 67 -314 102 -444 82 -176 -27 -296 -89 -413 -213 -66 -71 -99 -128 -132 -230 -43 -134 -39 -246 13 -387 44 -119 162 -219 323 -275 137 -47 340 -47 515 2 119 33 268 96 335 142 32 22 85 27 131 11 51 -17 235 -40 321 -40 80 0 123 5 323 37 101 16 146 27 305 75 97 29 131 41 225 80 25 11 54 23 65 27 67 28 314 153 388 198 48 29 90 53 93 53 3 0 17 8 32 19 15 10 70 47 122 81 137 90 314 235 469 385 140 135 192 190 342 365 77 90 251 318 307 403 26 39 68 102 94 141 83 125 179 296 287 511 126 250 161 327 203 450 11 33 24 65 28 70 4 6 11 21 14 35 6 21 25 85 79 260 6 19 14 55 18 80 5 25 17 86 28 135 12 50 26 171 33 270 14 214 1 443 -33 565 -11 41 -24 91 -29 111 -38 148 -181 389 -310 519 -201 203 -378 298 -705 380 -108 27 -501 46 -620 30z m-2696 -4798 c30 -15 60 -35 65 -45 24 -42 -108 -112 -202 -109 -18 1 -52 10 -76 21 -53 23 -71 61 -50 109 7 18 14 32 16 32 2 0 21 7 43 15 55 21 136 12 204 -23z"/> <path d="M15560 8264 c-194 -32 -197 -35 -242 -171 -49 -146 -87 -254 -98 -278 -5 -11 -23 -56 -40 -100 -17 -44 -40 -100 -50 -125 -10 -25 -33 -81 -50 -125 -87 -223 -211 -461 -357 -683 -78 -120 -153 -213 -248 -308 -121 -121 -201 -153 -244 -98 -26 33 -27 76 -4 169 15 64 63 206 84 247 5 9 25 59 45 110 20 51 49 121 65 156 16 34 29 67 29 72 0 6 4 18 10 28 14 25 52 113 98 227 22 55 47 114 56 130 9 17 16 33 16 37 0 4 18 46 40 93 22 47 40 89 40 92 0 7 96 227 115 263 21 40 28 96 15 120 -18 34 -90 60 -183 67 -93 6 -276 -10 -353 -32 l-52 -15 -25 -77 c-20 -61 -111 -286 -177 -438 -5 -11 -18 -42 -30 -70 -12 -27 -28 -64 -36 -82 -8 -17 -14 -37 -14 -45 0 -8 -4 -18 -9 -23 -9 -10 -144 -326 -196 -460 -55 -141 -72 -172 -159 -290 -103 -139 -311 -352 -376 -386 -84 -44 -150 -25 -150 42 0 43 98 320 165 464 12 28 33 75 45 105 24 62 26 66 110 245 34 72 67 144 75 160 7 17 47 100 89 186 42 86 76 161 76 166 0 5 13 37 30 70 50 104 63 155 58 237 -3 70 -6 78 -38 112 -46 48 -127 84 -190 84 -48 0 -167 -23 -205 -39 -11 -5 -45 -19 -75 -31 -29 -12 -71 -33 -92 -46 -21 -13 -40 -24 -42 -24 -8 0 -190 -132 -267 -195 -41 -32 -150 -134 -242 -225 -93 -91 -173 -166 -178 -168 -15 -6 -10 33 9 80 56 129 112 317 112 373 0 38 -27 89 -59 111 -61 43 -236 56 -386 29 -175 -31 -190 -43 -198 -168 -4 -66 -16 -121 -41 -197 -37 -109 -85 -245 -104 -293 -7 -16 -12 -31 -12 -35 0 -7 -48 -128 -70 -177 -5 -11 -21 -48 -34 -82 -33 -79 -71 -148 -108 -193 -16 -19 -60 -75 -99 -125 -268 -341 -611 -644 -844 -746 -79 -34 -154 -51 -242 -56 -72 -4 -87 -1 -137 22 -94 44 -140 149 -129 293 6 74 8 76 118 92 87 12 153 29 260 67 39 13 85 29 103 34 34 10 173 81 202 103 8 6 31 20 50 30 141 77 351 277 454 431 106 159 144 245 186 420 44 179 6 322 -112 429 -100 91 -257 124 -451 95 -68 -10 -190 -44 -212 -59 -5 -4 -23 -10 -40 -14 -166 -40 -525 -317 -699 -539 -88 -114 -165 -219 -176 -242 -6 -11 -19 -33 -30 -50 -31 -47 -176 -345 -195 -400 -9 -27 -21 -59 -26 -70 -5 -11 -25 -69 -45 -130 -39 -120 -51 -138 -191 -288 -72 -78 -141 -143 -239 -227 -193 -167 -409 -286 -569 -313 -174 -30 -264 11 -326 149 -28 62 -31 76 -27 143 6 86 25 111 85 111 53 0 168 28 254 61 41 16 79 29 83 29 8 0 196 92 231 113 376 226 631 531 726 873 29 103 32 266 6 338 -37 102 -114 183 -223 233 -54 25 -69 27 -184 27 -131 0 -190 -10 -340 -61 -78 -26 -216 -91 -262 -124 -14 -11 -29 -19 -32 -19 -22 0 -219 -162 -317 -261 -120 -120 -291 -339 -349 -446 -12 -21 -30 -51 -40 -68 -31 -48 -150 -298 -150 -314 0 -5 -7 -22 -14 -38 -19 -36 -76 -223 -76 -248 0 -11 -6 -38 -14 -60 -7 -22 -19 -98 -26 -170 -10 -112 -10 -144 4 -235 18 -117 32 -165 79 -260 40 -83 132 -175 212 -214 33 -16 67 -32 76 -37 37 -18 216 -41 274 -36 84 8 194 26 230 37 17 5 55 16 85 25 77 23 281 124 371 184 161 108 404 334 542 504 82 101 85 101 112 -8 41 -160 137 -290 261 -353 74 -37 213 -72 285 -72 102 1 261 29 367 65 78 27 244 106 272 129 8 7 35 25 60 39 25 14 54 34 65 45 11 10 38 30 60 45 103 70 356 318 474 465 65 82 79 37 25 -84 -14 -31 -34 -84 -45 -118 -11 -34 -24 -69 -30 -78 -20 -39 -79 -223 -79 -250 0 -79 47 -103 200 -100 232 4 383 42 396 100 3 15 11 43 19 62 7 19 21 62 30 95 9 33 22 76 30 95 7 19 27 73 45 120 18 47 45 113 61 148 16 34 29 67 29 72 0 6 4 18 9 28 5 9 27 55 49 102 66 141 77 162 117 235 183 337 577 765 705 765 42 0 33 -31 -110 -370 -195 -463 -261 -637 -297 -780 -23 -95 -28 -275 -9 -349 42 -163 205 -255 393 -221 74 13 168 42 217 67 140 71 320 228 461 401 57 69 81 92 86 80 1 -2 4 -50 8 -108 11 -171 64 -255 199 -311 71 -29 83 -31 157 -26 83 6 208 45 275 85 19 12 42 25 50 29 65 30 291 246 383 366 57 74 83 87 72 35 -4 -18 -11 -39 -16 -48 -16 -29 -79 -197 -79 -212 0 -8 -4 -18 -9 -24 -5 -5 -21 -40 -34 -79 -14 -38 -31 -86 -38 -105 -22 -60 -50 -120 -61 -126 -9 -6 -85 -27 -273 -78 -89 -24 -213 -64 -234 -75 -11 -6 -27 -11 -36 -11 -9 0 -46 -13 -82 -30 -35 -16 -68 -30 -72 -30 -28 0 -306 -138 -344 -171 -7 -5 -46 -32 -87 -58 -71 -46 -193 -163 -252 -241 -33 -44 -78 -129 -103 -195 -16 -39 -20 -76 -20 -170 0 -111 2 -125 30 -190 16 -39 42 -89 57 -112 58 -85 222 -182 366 -215 157 -35 412 -12 598 56 58 21 205 99 277 148 95 64 282 259 358 373 60 89 174 301 206 380 6 17 19 48 28 70 18 44 73 198 82 230 19 71 37 95 77 106 64 17 337 109 365 123 14 7 85 41 156 76 299 145 447 258 589 450 163 221 205 408 127 574 -45 96 -106 153 -207 193 -103 41 -183 49 -271 27 -119 -30 -199 -83 -219 -146 -5 -17 0 -27 22 -45 108 -87 111 -91 121 -143 16 -82 -10 -181 -72 -274 -84 -125 -212 -232 -407 -340 -44 -25 -98 -35 -98 -18 0 4 12 39 26 77 14 39 28 79 31 90 8 30 63 186 79 222 8 17 14 35 14 39 0 9 56 165 76 211 8 17 14 35 14 39 0 13 77 222 106 291 8 17 14 35 14 41 0 5 7 23 15 38 8 16 15 36 15 44 0 9 4 20 8 25 5 6 19 39 31 75 13 36 29 79 36 95 7 17 28 71 45 120 18 50 36 99 41 110 4 11 19 52 33 90 27 77 70 195 108 295 38 102 89 263 91 285 4 87 -41 108 -228 111 -77 1 -151 0 -165 -2z m-4606 -709 c22 -34 21 -146 -2 -210 -44 -123 -138 -259 -265 -388 -74 -74 -216 -187 -235 -187 -5 0 -14 -6 -20 -13 -10 -11 -93 -55 -175 -90 -21 -10 -51 -17 -67 -17 -35 0 -39 19 -16 72 8 18 22 51 31 73 17 42 26 59 95 190 106 201 276 416 399 508 94 69 131 87 187 87 44 0 54 -4 68 -25z m-1961 -273 c61 -64 21 -225 -109 -439 -42 -68 -181 -220 -265 -288 -60 -50 -107 -85 -112 -85 -4 0 -23 -12 -44 -26 -96 -66 -251 -121 -267 -96 -5 9 15 66 62 172 38 88 129 259 148 281 8 8 14 19 14 23 0 17 112 168 175 236 130 139 201 196 289 231 59 24 79 22 109 -9z m5347 -2026 c0 -12 -7 -31 -15 -42 -8 -10 -15 -25 -15 -32 0 -23 -68 -159 -125 -251 -131 -212 -367 -381 -530 -381 -39 0 -103 25 -137 53 -30 24 -51 93 -44 143 10 78 41 131 124 212 43 42 85 82 93 87 37 27 120 75 130 75 6 0 20 5 32 12 33 18 180 78 193 78 6 0 47 12 90 26 90 29 185 52 197 46 4 -2 7 -13 7 -26z"/> <path d="M13445 5439 c-38 -4 -130 -12 -204 -19 -73 -6 -137 -13 -142 -15 -4 -3 -61 -9 -126 -14 -66 -5 -146 -14 -179 -20 -32 -6 -117 -16 -189 -22 -298 -24 -340 -28 -408 -38 -40 -6 -124 -15 -187 -21 -63 -6 -176 -17 -250 -25 -74 -8 -187 -20 -250 -25 -63 -6 -122 -13 -131 -15 -9 -3 -81 -12 -160 -19 -188 -18 -515 -54 -654 -71 -60 -8 -157 -19 -215 -24 -58 -6 -154 -17 -215 -26 -60 -8 -159 -19 -220 -25 -60 -6 -121 -12 -135 -15 -23 -5 -162 -22 -360 -45 -41 -4 -102 -13 -135 -19 -33 -5 -109 -15 -170 -22 -60 -6 -159 -17 -220 -25 -60 -8 -150 -19 -200 -24 -49 -5 -110 -14 -135 -19 -25 -5 -74 -12 -110 -16 -36 -3 -87 -10 -115 -15 -27 -5 -106 -16 -175 -25 -69 -8 -163 -22 -210 -30 -47 -8 -110 -17 -140 -20 -30 -4 -104 -15 -165 -26 -60 -11 -150 -24 -198 -29 -49 -6 -93 -13 -98 -16 -5 -3 -62 -11 -126 -19 -65 -8 -154 -21 -198 -30 -44 -8 -116 -20 -160 -24 -44 -5 -100 -14 -125 -20 -25 -6 -88 -18 -140 -27 -52 -8 -124 -22 -160 -29 -36 -8 -110 -22 -165 -31 -92 -15 -231 -44 -395 -80 -36 -8 -85 -19 -110 -24 -116 -23 -198 -42 -225 -51 -72 -23 -214 -62 -255 -70 -72 -14 -153 -44 -164 -62 -19 -29 9 -40 126 -48 114 -9 383 -32 558 -49 52 -5 140 -12 195 -16 55 -3 120 -10 144 -15 24 -6 114 -14 200 -19 86 -5 224 -16 306 -25 319 -32 322 -32 640 36 28 6 84 17 125 24 41 7 127 22 190 34 63 11 142 26 175 31 33 6 134 25 225 41 91 16 181 32 200 35 98 14 289 46 425 70 44 8 121 21 170 29 50 8 131 22 180 30 50 9 124 20 165 25 41 5 95 14 120 19 25 5 95 17 155 26 61 9 140 23 177 31 37 8 83 14 104 14 20 0 62 6 93 14 31 8 81 17 111 21 30 4 107 16 170 27 63 10 150 24 194 29 43 5 82 12 87 15 11 6 356 62 459 74 41 5 102 14 135 20 84 15 423 62 715 100 41 5 87 12 102 15 26 6 91 16 333 50 55 8 147 22 205 30 58 9 145 20 193 25 48 5 92 12 97 15 9 6 161 28 310 45 128 15 129 15 208 100 111 119 241 218 390 294 107 56 97 63 -63 45z"/> <path d="M4074 3695 c-4 -8 -1 -43 6 -77 36 -189 69 -378 80 -455 4 -34 13 -84 19 -110 6 -26 15 -79 21 -118 6 -38 18 -110 26 -160 8 -49 19 -125 25 -169 5 -43 12 -83 15 -88 5 -8 17 -73 45 -253 6 -38 16 -73 22 -77 7 -4 83 -8 169 -8 l158 0 5 28 c3 15 13 49 21 76 7 26 14 60 14 75 0 14 5 42 10 61 5 19 14 62 19 95 26 169 40 245 45 254 3 5 10 42 16 82 13 94 18 109 35 109 17 0 21 -18 29 -109 3 -35 10 -80 15 -100 6 -20 17 -81 26 -136 9 -55 23 -129 30 -165 8 -36 19 -103 25 -150 17 -133 -3 -120 185 -120 90 0 166 4 169 9 3 4 10 41 16 82 6 41 15 88 21 104 5 17 13 62 19 100 5 39 16 106 25 150 8 44 22 118 30 165 13 79 43 239 66 355 5 28 16 86 24 130 8 44 19 103 24 130 31 151 52 286 46 295 -4 6 -64 10 -151 10 l-145 0 -15 -36 c-8 -20 -19 -72 -24 -116 -5 -44 -12 -88 -14 -97 -3 -9 -10 -54 -16 -101 -14 -122 -39 -297 -50 -355 -5 -27 -9 -72 -10 -100 -1 -121 -45 -70 -61 73 -5 48 -14 103 -19 122 -5 19 -16 80 -25 135 -9 55 -23 132 -30 170 -7 39 -18 99 -24 135 -19 115 -28 152 -42 161 -19 12 -226 11 -248 -1 -13 -7 -20 -27 -25 -75 -4 -36 -11 -77 -17 -91 -5 -15 -14 -54 -19 -88 -10 -66 -32 -201 -50 -306 -6 -36 -18 -95 -26 -131 -8 -37 -14 -80 -14 -95 0 -43 -11 -75 -24 -71 -17 5 -35 66 -35 122 -1 27 -8 92 -16 145 -27 178 -36 245 -50 365 -20 169 -26 208 -38 223 -7 8 -51 12 -159 12 -123 0 -150 -3 -154 -15z"/> <path d="M5905 3698 c-3 -7 -4 -350 -3 -763 l3 -750 154 -3 c117 -2 156 1 163 10 4 7 8 146 8 309 0 228 3 298 13 302 6 2 71 4 144 3 94 -1 136 -5 145 -14 10 -10 14 -85 18 -310 l5 -297 150 0 150 0 0 760 0 760 -140 2 c-77 2 -147 -1 -155 -6 -12 -8 -14 -52 -12 -286 2 -180 -1 -282 -8 -295 -10 -19 -21 -20 -155 -20 -79 0 -146 4 -149 9 -3 5 -6 136 -7 292 0 155 -3 288 -6 296 -7 18 -311 19 -318 1z"/> <path d="M7292 3702 c-10 -7 -12 -166 -10 -763 l3 -754 360 -3 c198 -1 370 0 383 3 21 5 22 9 22 140 0 88 -4 136 -11 141 -6 4 -103 6 -215 5 -247 -2 -229 -17 -222 178 5 116 8 136 24 148 15 11 54 13 169 11 83 -1 156 1 163 5 8 6 12 42 12 125 0 178 18 162 -179 162 -117 0 -171 4 -179 12 -13 13 -16 223 -3 268 l7 25 204 5 205 5 9 132 c7 103 6 136 -4 148 -11 13 -63 15 -369 15 -196 0 -362 -4 -369 -8z"/> <path d="M8452 3702 c-10 -6 -12 -166 -10 -763 l3 -754 144 -3 c80 -1 148 1 152 5 5 5 9 123 9 263 1 159 6 260 12 268 11 13 66 16 84 4 6 -4 20 -29 31 -57 11 -27 37 -93 58 -145 21 -52 44 -113 52 -135 7 -22 18 -49 23 -60 5 -11 17 -42 26 -70 9 -27 21 -56 26 -62 8 -10 55 -13 174 -13 182 0 182 0 150 66 -38 78 -66 142 -66 148 0 4 -9 28 -21 54 -11 26 -24 56 -28 67 -84 200 -101 242 -101 255 0 8 24 36 54 62 122 107 174 317 131 526 -21 97 -48 152 -108 218 -53 59 -77 74 -166 106 -50 19 -85 21 -336 25 -154 2 -286 0 -293 -5z m506 -311 c45 -23 66 -58 81 -137 30 -157 -55 -264 -209 -264 -69 0 -70 3 -73 210 -1 102 2 191 6 198 13 20 151 16 195 -7z"/> <path d="M9781 3696 c-8 -9 -10 -217 -9 -762 l3 -749 375 0 375 0 8 74 c4 40 4 103 0 140 l-8 66 -210 6 c-115 3 -211 6 -212 7 -2 1 -3 74 -3 162 0 88 1 161 3 162 1 1 83 4 182 7 l180 6 3 123 c1 72 -2 130 -8 142 -10 18 -23 20 -183 22 l-172 3 0 150 0 150 210 5 210 5 3 139 c2 105 -1 141 -10 148 -7 4 -173 8 -369 8 -289 0 -359 -3 -368 -14z"/> <path d="M10942 3701 c-11 -6 -13 -122 -10 -607 4 -586 4 -600 26 -662 30 -88 75 -146 154 -198 89 -59 155 -76 298 -76 126 -1 176 11 268 63 78 44 116 82 150 152 63 132 63 133 60 762 l-3 570 -150 0 -150 0 -6 -30 c-4 -16 -7 -269 -8 -561 l-1 -531 -23 -44 c-26 -49 -89 -89 -142 -89 -51 0 -106 39 -134 95 l-26 50 -3 545 c-1 300 -4 551 -7 558 -5 14 -271 18 -293 3z"/> <path d="M12546 3694 c-9 -8 -16 -24 -16 -34 0 -10 -12 -62 -26 -116 -14 -55 -30 -121 -34 -149 -5 -27 -16 -79 -25 -115 -8 -36 -22 -94 -30 -130 -7 -36 -18 -83 -24 -105 -5 -22 -24 -103 -41 -180 -17 -77 -36 -151 -41 -165 -5 -14 -14 -48 -18 -75 -5 -28 -24 -104 -41 -170 -41 -156 -59 -245 -53 -262 7 -18 296 -19 311 0 5 6 14 37 20 67 31 153 38 182 52 190 18 11 310 13 326 2 10 -6 31 -79 50 -172 3 -14 10 -42 15 -63 l10 -38 157 3 c150 3 157 4 155 23 -3 33 -22 124 -48 230 -13 55 -33 147 -45 205 -12 58 -25 121 -30 140 -5 19 -19 78 -30 130 -23 102 -61 264 -80 345 -6 28 -22 99 -35 158 -13 59 -26 115 -29 123 -3 8 -11 45 -16 82 -6 36 -16 72 -22 79 -8 10 -58 13 -204 13 -162 0 -195 -3 -208 -16z m224 -461 c0 -15 7 -54 14 -87 8 -34 29 -133 46 -221 37 -194 41 -187 -95 -183 l-90 3 2 55 c1 30 9 82 17 115 8 33 22 96 31 140 33 170 49 220 65 210 5 -3 10 -18 10 -32z"/> <path d="M13465 3701 c-6 -6 -8 -66 -5 -148 l5 -138 132 -3 c93 -2 134 -6 142 -16 7 -9 12 -198 13 -612 l3 -599 150 0 150 0 3 599 c1 415 6 603 13 612 8 10 50 14 147 16 l137 3 0 145 0 145 -440 3 c-271 1 -444 -1 -450 -7z"/> </g> </svg>