<svg
  xmlns="http://www.w3.org/2000/svg"
  viewBox="0 0 600 476"
  preserveAspectRatio="xMidYMid meet"
>
  <g
    transform="translate(0,476) scale(0.05,-0.05)"
    fill="#137647"
    stroke="none"
  >
    <path d="M6786 8480 c-180 -38 -531 -211 -555 -274 -42 -111 69 -141 208 -56 427 259 951 219 1304 -100 88 -79 117 -85 164 -33 68 74 13 146 -232 305 -227 146 -618 216 -889 158z"/>
    <path d="M6828 8051 c-213 -48 -368 -142 -368 -223 0 -90 62 -93 220 -12 251 129 553 103 792 -66 86 -62 101 -66 137 -42 231 153 -398 429 -781 343z"/>
    <path d="M6880 7607 c-559 -103 -878 -643 -675 -1142 70 -171 715 -1155 758 -1155 58 0 722 1068 780 1253 175 565 -306 1147 -863 1044z m283 -472 c270 -165 257 -545 -23 -688 -360 -184 -718 242 -479 571 115 159 346 213 502 117z"/>
    <path d="M3900 6708 c-942 -173 -1727 -624 -2070 -1188 -356 -586 -98 -1183 526 -1216 126 -6 183 -17 177 -32 -5 -12 -43 -101 -85 -198 l-75 -177 -92 12 c-471 63 -912 -478 -774 -950 81 -280 250 -423 577 -488 l54 -11 6 -585 c7 -661 12 -689 160 -796 141 -101 44 -99 3993 -99 4132 0 3852 -9 3995 134 133 133 132 117 132 1101 1 991 9 941 -143 911 -116 -23 -113 -30 -60 126 l40 120 145 45 c635 197 980 831 689 1266 -64 96 -197 197 -258 197 -59 0 -61 35 -7 185 161 443 153 626 -27 699 -84 34 -495 24 -623 -15 -60 -18 -137 -32 -170 -31 -340 15 -525 8 -586 -23 -63 -31 -70 -31 -144 7 -176 92 -446 58 -669 -84 l-100 -63 -100 37 c-138 51 -382 47 -537 -8 -106 -38 -123 -39 -197 -13 -108 38 -245 37 -329 -3 -111 -53 -88 -88 57 -88 130 -1 262 -46 312 -107 25 -30 32 -29 86 16 146 123 554 126 654 4 25 -30 36 -27 120 35 282 205 555 242 694 94 l54 -57 89 62 c112 79 468 95 573 27 52 -35 56 -34 109 3 84 60 197 83 408 83 350 0 358 -23 186 -538 -136 -404 -136 -376 5 -367 301 22 449 -322 287 -667 -117 -251 -402 -464 -713 -534 l-119 -27 -70 -198 c-38 -110 -90 -237 -115 -283 -72 -134 -25 -153 230 -92 l45 10 0 -793 c0 -888 1 -879 -140 -951 -125 -64 -7516 -63 -7642 1 -134 68 -138 92 -138 796 l0 619 -155 8 c-724 36 -698 1084 28 1132 79 5 170 0 201 -11 l58 -20 156 358 c158 362 173 433 87 409 -864 -241 -1184 569 -493 1248 608 597 1713 959 2386 782 588 -155 904 -702 793 -1372 -21 -125 -19 -127 74 -66 250 166 550 253 742 216 94 -17 115 -14 200 28 51 26 132 58 180 71 71 19 82 28 62 52 -30 36 -150 37 -251 2 -52 -18 -132 -24 -239 -18 -166 10 -395 -36 -531 -106 l-58 -30 0 95 c-1 613 -325 1083 -870 1259 -157 51 -633 84 -790 55z"/>
    <path d="M3959 6439 c-688 -71 -1578 -570 -1853 -1039 -227 -388 -107 -725 268 -755 234 -19 395 88 248 164 -314 162 154 837 808 1166 604 303 1112 259 1250 -109 279 -747 -728 -2352 -1574 -2508 -143 -27 -153 -15 -98 108 84 184 786 1597 903 1814 363 679 357 662 222 727 -83 41 -208 29 -359 -34 -87 -36 -622 -1104 -1104 -2203 -125 -284 -114 -273 -209 -226 -238 118 -552 -6 -633 -249 -126 -379 276 -591 726 -382 96 45 112 47 233 26 572 -99 1400 394 1909 1137 942 1375 591 2500 -737 2363z m-1643 -3205 c42 -33 -23 -82 -107 -82 -73 0 -113 34 -95 80 18 48 142 49 202 2z"/>
    <path d="M10301 5502 c-41 -11 -65 -56 -151 -283 -176 -466 -328 -738 -502 -898 -251 -232 -189 54 200 925 87 194 74 214 -135 214 -139 -1 -213 -16 -213 -44 0 -21 -327 -811 -373 -901 -16 -31 -87 -118 -158 -193 -319 -338 -301 -128 51 608 133 277 163 389 118 442 -116 140 -384 34 -721 -286 -90 -86 -157 -138 -148 -116 129 323 88 418 -164 380 -159 -24 -185 -40 -185 -120 0 -546 -867 -1468 -1151 -1224 -97 83 -68 233 45 234 454 3 1007 718 757 979 -297 310 -988 -149 -1232 -819 -187 -511 -918 -890 -927 -480 l-2 86 110 26 c611 142 1064 859 678 1073 -353 196 -1024 -360 -1189 -987 -204 -773 477 -966 1115 -315 l154 157 25 -83 c118 -394 650 -325 1105 142 171 176 173 173 79 -82 -75 -202 -58 -227 137 -211 184 16 193 23 268 235 157 439 383 796 591 934 115 76 114 54 -18 -269 -141 -345 -185 -484 -185 -588 0 -328 361 -330 659 -4 l121 132 0 -64 c0 -312 330 -317 633 -10 l142 146 -77 -203 c-92 -242 -66 -217 -298 -286 -691 -203 -1019 -640 -679 -906 388 -303 968 43 1208 721 32 90 38 95 167 137 620 203 963 716 602 900 -174 89 -415 -9 -305 -124 119 -124 19 -314 -247 -468 -102 -59 -100 -50 164 670 276 751 290 796 248 823 -32 20 -245 21 -317 0z m-2985 -516 c14 -140 -205 -409 -412 -504 -137 -64 -144 -50 -58 125 170 343 452 571 470 379z m-1300 -173 c16 -138 -208 -432 -405 -530 -151 -76 -160 -56 -65 136 161 323 451 566 470 394z m3497 -1421 c-128 -280 -440 -451 -516 -283 -55 121 106 276 384 369 194 65 200 61 132 -86z"/>
    <path d="M8510 3588 c-1275 -136 -1635 -177 -2229 -249 -1795 -221 -3239 -501 -2756 -535 47 -3 318 -27 602 -54 l517 -47 203 40 c549 107 1867 320 2999 485 l856 125 84 82 c46 45 129 109 183 143 121 76 147 75 -459 10z"/>
    <path d="M2726 2425 c7 -30 46 -260 87 -510 l76 -455 114 0 c130 0 111 -33 167 290 46 259 51 261 92 40 19 -110 41 -229 48 -265 12 -64 14 -65 120 -65 126 0 110 -33 180 360 29 160 65 362 81 450 40 221 43 210 -69 210 -117 0 -108 18 -154 -316 -40 -293 -50 -303 -85 -84 -13 83 -34 207 -46 276 l-21 126 -93 -6 -93 -6 -52 -290 c-57 -317 -64 -320 -97 -40 -12 105 -27 224 -34 265 l-11 75 -110 0 c-110 0 -111 0 -100 -55z"/>
    <path d="M3940 1970 l0 -510 110 0 110 0 0 210 0 210 98 0 c117 0 121 -10 122 -255 l0 -165 100 0 100 0 0 510 0 510 -100 0 c-113 0 -103 23 -107 -240 l-3 -150 -105 -6 -105 -6 0 201 0 201 -110 0 -110 0 0 -510z"/>
    <path d="M4860 1970 l0 -510 261 0 261 0 -6 95 -6 95 -145 6 -145 6 0 109 0 109 120 0 120 0 0 100 0 100 -120 0 -120 0 0 100 0 100 140 0 140 0 0 100 0 100 -250 0 -250 0 0 -510z"/>
    <path d="M5640 1970 l0 -510 100 0 100 0 0 180 c0 162 4 180 37 180 28 0 53 -43 104 -180 l67 -180 116 0 115 0 -38 95 c-21 52 -57 141 -81 197 l-43 103 50 50 c101 101 116 314 32 452 -57 94 -144 123 -368 123 l-191 0 0 -510z m359 282 c82 -100 20 -262 -95 -248 -52 6 -54 11 -60 141 l-6 135 69 0 c37 0 79 -13 92 -28z"/>
    <path d="M6520 1970 l0 -510 248 0 c248 0 248 0 260 50 30 120 1 150 -150 150 l-138 0 0 110 0 110 120 0 120 0 0 100 0 100 -120 0 -120 0 0 100 0 100 140 0 140 0 0 100 0 100 -250 0 -250 0 0 -510z"/>
    <path d="M7300 2068 c0 -533 48 -629 311 -628 270 2 317 93 325 625 l7 415 -112 0 -111 0 0 -376 c0 -400 -14 -464 -101 -464 -106 0 -119 50 -119 460 l0 380 -100 0 -100 0 0 -412z"/>
    <path d="M8261 2026 c-59 -251 -111 -481 -117 -512 l-9 -56 108 6 107 6 18 85 18 85 114 0 115 0 23 -90 23 -90 107 0 107 0 -38 175 c-21 96 -73 324 -115 505 l-75 330 -139 6 -139 6 -108 -456z m307 -114 c14 -72 14 -72 -57 -72 -80 0 -83 10 -50 160 46 214 51 210 107 -88z"/>
    <path d="M8980 2381 l0 -99 95 -6 95 -6 5 -405 6 -405 99 0 100 0 0 410 0 410 100 0 100 0 0 100 0 100 -300 0 -300 0 0 -99z"/>
  </g>
</svg>